<svg viewBox="0 0 320 80" fill="none" xmlns="http://www.w3.org/2000/svg">
  <defs>
    <linearGradient id="amaan-grad-hz-light" x1="0%" y1="0%" x2="100%" y2="100%">
      <stop offset="0%" stop-color="#2563EB" />
      <stop offset="100%" stop-color="#06B6D4" />
    </linearGradient>
  </defs>
  
  <!-- Icon group, scaled down to 0.75 -->
  <g transform="translate(2.5, 2.5) scale(0.75)">
    <path d="M 50,14 L 81,32 L 81,68 L 50,86 L 19,68 L 19,32 Z" stroke="url(#amaan-grad-hz-light)" stroke-width="3" stroke-linecap="round" stroke-linejoin="round" opacity="0.25" />
    <circle cx="50" cy="14" r="3" fill="#06B6D4" />
    <circle cx="81" cy="32" r="3" fill="#2563EB" />
    <circle cx="81" cy="68" r="3" fill="#06B6D4" />
    <circle cx="50" cy="86" r="3" fill="#2563EB" />
    <circle cx="19" cy="68" r="3" fill="#06B6D4" />
    <circle cx="19" cy="32" r="3" fill="#2563EB" />
    <path d="M 33,68 L 46,30 C 47.2,26.5 52.8,26.5 54,30 L 67,68 L 59.5,68 L 50,40.5 L 40.5,68 Z" fill="url(#amaan-grad-hz-light)" />
    <circle cx="50" cy="53" r="5.5" fill="#06B6D4" stroke="#FFFFFF" stroke-width="1.5" />
    <path d="M 38,53 L 44.5,53 M 55.5,53 L 62,53" stroke="url(#amaan-grad-hz-light)" stroke-width="1.5" stroke-linecap="round" />
  </g>

  <!-- Typography -->
  <text x="84" y="47" fill="#0F172A" font-family="'Inter', system-ui, sans-serif" font-size="24" font-weight="800" letter-spacing="-0.02em">Amaan</text>
  <text x="166" y="47" fill="#2563EB" font-family="'Inter', system-ui, sans-serif" font-size="24" font-weight="400" letter-spacing="-0.01em">Estate</text>
  <text x="85" y="64" fill="#64748B" font-family="'JetBrains Mono', monospace" font-size="8" font-weight="700" letter-spacing="0.22em">TECH PUBLICATION</text>
</svg>
